<svg xmlns="http://www.w3.org/2000/svg" xmlns:xlink="http://www.w3.org/1999/xlink" version="1.0" x="0" y="0" width="2400" height="441.3722473535826" viewBox="44.80010498046875 101.97510040283203 250.3997900390625 46.04979919433594" preserveAspectRatio="xMidYMid meet" color-interpolation-filters="sRGB"><g><defs><linearGradient id="92" x1="0%" y1="0%" x2="100%" y2="0%"><stop offset="0%" stop-color="#fa71cd"></stop> <stop offset="100%" stop-color="#9b59b6"></stop></linearGradient><linearGradient id="93" x1="0%" y1="0%" x2="100%" y2="0%"><stop offset="0%" stop-color="#f9d423"></stop> <stop offset="100%" stop-color="#f83600"></stop></linearGradient><linearGradient id="94" x1="0%" y1="0%" x2="100%" y2="0%"><stop offset="0%" stop-color="#0064d2"></stop> <stop offset="100%" stop-color="#1cb0f6"></stop></linearGradient><linearGradient id="95" x1="0%" y1="0%" x2="100%" y2="0%"><stop offset="0%" stop-color="#f00978"></stop> <stop offset="100%" stop-color="#3f51b1"></stop></linearGradient><linearGradient id="96" x1="0%" y1="0%" x2="100%" y2="0%"><stop offset="0%" stop-color="#7873f5"></stop> <stop offset="100%" stop-color="#ec77ab"></stop></linearGradient><linearGradient id="97" x1="0%" y1="0%" x2="100%" y2="0%"><stop offset="0%" stop-color="#f9d423"></stop> <stop offset="100%" stop-color="#e14fad"></stop></linearGradient><linearGradient id="98" x1="0%" y1="0%" x2="100%" y2="0%"><stop offset="0%" stop-color="#009efd"></stop> <stop offset="100%" stop-color="#2af598"></stop></linearGradient><linearGradient id="99" x1="0%" y1="0%" x2="100%" y2="0%"><stop offset="0%" stop-color="#ffcc00"></stop> <stop offset="100%" stop-color="#00b140"></stop></linearGradient><linearGradient id="100" x1="0%" y1="0%" x2="100%" y2="0%"><stop offset="0%" stop-color="#d51007"></stop> <stop offset="100%" stop-color="#ff8177"></stop></linearGradient><linearGradient id="102" x1="0%" y1="0%" x2="100%" y2="0%"><stop offset="0%" stop-color="#a2b6df"></stop> <stop offset="100%" stop-color="#0c3483"></stop></linearGradient><linearGradient id="103" x1="0%" y1="0%" x2="100%" y2="0%"><stop offset="0%" stop-color="#7ac5d8"></stop> <stop offset="100%" stop-color="#eea2a2"></stop></linearGradient><linearGradient id="104" x1="0%" y1="0%" x2="100%" y2="0%"><stop offset="0%" stop-color="#00ecbc"></stop> <stop offset="100%" stop-color="#007adf"></stop></linearGradient><linearGradient id="105" x1="0%" y1="0%" x2="100%" y2="0%"><stop offset="0%" stop-color="#b88746"></stop> <stop offset="100%" stop-color="#fdf5a6"></stop></linearGradient></defs><g fill="#ffffff" class="endsvg" transform="translate(47.2550048828125,104.43000030517578)"><g class="tp-name"><g><rect stroke-width="2" class="i-icon-bg" x="0" y="0" width="245.489990234375" height="41.13999938964844" fill-opacity="0"></rect> </g> <g transform="translate(0,0)"><g mask="url(#f00d36f2-8b18-49da-b78b-50a6d5306530)"><g><rect stroke-width="2" class="i-icon-bg" x="0" y="0" width="139.47999572753906" height="41.13999938964844"></rect> </g> <g transform="translate(5,7)"><g fill="#ffffff"><g transform="scale(1)"><path d="M21.88-7.62C21.88-14.09 15.75-14.72 10.68-16.21C9.04-16.70 7.24-17.31 7.24-19.29C7.24-21.50 9.05-22.29 11.48-22.29C12.29-22.29 13.07-22.19 13.85-21.99C15.61-21.54 17.60-20.72 18.65-19.67L20.94-23.87C18.66-25.42 15.44-26.84 11.64-26.84C10.28-26.84 9.02-26.65 7.84-26.29C4.49-25.26 1.91-22.80 1.91-18.47C1.91-12.57 7.66-11.80 12.31-10.43C14.09-9.91 16.36-9.23 16.36-7.09C16.36-5.27 14.94-4.35 12.09-4.35C9.95-4.35 7.92-4.97 6.42-5.65C5.24-6.18 3.84-6.89 3.12-7.62L0.83-3.15C3.58-1.20 7.56 0.30 12.01 0.30C17.59 0.30 21.88-2.01 21.88-7.62ZM32.92-26.65L22.74 0L28.07 0L30.51-6.64L39.82-6.64L42.30 0L47.63 0L37.50-26.65ZM38.88-10.28L31.38-10.28L35.21-20.76ZM50.56 0L55.74 0L55.74-8.93L62.04-8.93C63.27-8.93 64.39-9.18 65.42-9.68C68.14-11.01 70.34-13.85 70.34-17.79C70.34-18.87 70.12-19.94 69.70-21.00C68.52-23.94 65.90-26.65 61.85-26.65L50.56-26.65ZM65.08-17.79C65.08-15.47 63.90-13.47 61.74-13.47L55.74-13.47L55.74-22.11L61.52-22.11C63.81-22.11 65.08-20.14 65.08-17.79ZM73.94 0L79.12 0L79.12-26.65L73.94-26.65ZM103.18-4.54L89.85-4.54L89.85-11.48L101.08-11.48L101.08-15.69L89.85-15.69L89.85-22.11L102.84-22.11L102.84-26.65L84.67-26.65L84.67 0L103.18 0ZM112.41 0L112.41-17.08L126.11 0L130.31 0L130.31-26.61L125.13-26.61L125.13-9.16L111.25-26.65L107.23-26.65L107.23 0Z" transform="translate(-0.8257180156657964, 26.83583550913838)"></path></g></g></g></g> <g transform="translate(139.47999572753906,0)"><g><rect stroke-width="2" class="i-icon-bg" x="0" y="0" width="106.01000213623047" height="41.13999938964844" fill-opacity="0"></rect> </g> <g transform="translate(5,7)"><rect x="0" y="-7" width="96.01000213623047" height="2" fill="#ffffff"></rect> <rect x="0" y="32.13999938964844" width="96.01000213623047" height="2" fill="#ffffff"></rect> <g fill="#ffffff"><g transform="scale(1)"><path d="M3.23-26.65L0.49-26.65L11.60 0L13.89 0L25.00-26.65L22.26-26.65L12.76-3.27ZM28.83 0L31.45 0L31.45-26.65L28.83-26.65ZM56.04-2.33L40.76-2.33L40.76-12.50L53.78-12.50L53.78-14.71L40.76-14.71L40.76-24.32L55.70-24.32L55.70-26.65L38.13-26.65L38.13 0L56.04 0ZM71.01-26.46L75.67-15.09L70.60-3.04L60.92-26.65L58.10-26.65L69.36 0L71.65 0L77.28-13.17L82.87 0L85.20 0L96.50-26.65L93.64-26.65L84.00-3.04L78.89-15.09L83.55-26.46L81.03-26.46L77.24-17.00L73.49-26.46Z" transform="translate(-0.4879242819843343, 26.83583550913838)"></path></g></g></g></g></g></g> </g><mask id="f00d36f2-8b18-49da-b78b-50a6d5306530"><g fill="white"><rect stroke-width="2" class="i-icon-bg" x="0" y="0" width="139.47999572753906" height="41.13999938964844"></rect> </g> <g transform="translate(5,7)" fill="black"><g><g transform="scale(1)"><path d="M21.88-7.62C21.88-14.09 15.75-14.72 10.68-16.21C9.04-16.70 7.24-17.31 7.24-19.29C7.24-21.50 9.05-22.29 11.48-22.29C12.29-22.29 13.07-22.19 13.85-21.99C15.61-21.54 17.60-20.72 18.65-19.67L20.94-23.87C18.66-25.42 15.44-26.84 11.64-26.84C10.28-26.84 9.02-26.65 7.84-26.29C4.49-25.26 1.91-22.80 1.91-18.47C1.91-12.57 7.66-11.80 12.31-10.43C14.09-9.91 16.36-9.23 16.36-7.09C16.36-5.27 14.94-4.35 12.09-4.35C9.95-4.35 7.92-4.97 6.42-5.65C5.24-6.18 3.84-6.89 3.12-7.62L0.83-3.15C3.58-1.20 7.56 0.30 12.01 0.30C17.59 0.30 21.88-2.01 21.88-7.62ZM32.92-26.65L22.74 0L28.07 0L30.51-6.64L39.82-6.64L42.30 0L47.63 0L37.50-26.65ZM38.88-10.28L31.38-10.28L35.21-20.76ZM50.56 0L55.74 0L55.74-8.93L62.04-8.93C63.27-8.93 64.39-9.18 65.42-9.68C68.14-11.01 70.34-13.85 70.34-17.79C70.34-18.87 70.12-19.94 69.70-21.00C68.52-23.94 65.90-26.65 61.85-26.65L50.56-26.65ZM65.08-17.79C65.08-15.47 63.90-13.47 61.74-13.47L55.74-13.47L55.74-22.11L61.52-22.11C63.81-22.11 65.08-20.14 65.08-17.79ZM73.94 0L79.12 0L79.12-26.65L73.94-26.65ZM103.18-4.54L89.85-4.54L89.85-11.48L101.08-11.48L101.08-15.69L89.85-15.69L89.85-22.11L102.84-22.11L102.84-26.65L84.67-26.65L84.67 0L103.18 0ZM112.41 0L112.41-17.08L126.11 0L130.31 0L130.31-26.61L125.13-26.61L125.13-9.16L111.25-26.65L107.23-26.65L107.23 0Z" transform="translate(-0.8257180156657964, 26.83583550913838)"></path></g></g></g></mask><defs v-gra="od"></defs></g></svg>